#!OML:ASF H:\Dans Jumps\Project 1\Capture day 1\Session 1\subject.ASF
:FULLY-SPECIFIED
:DEGREES
533
root 0.697149 17.6157 2.71707 7.81752 -0.316144 -1.06917
lowerback -2.13261 -0.241972 -0.705577
upperback 1.20226 -0.342468 1.83947
thorax 2.44533 -0.198553 2.27124
lowerneck -12.6184 0.0769563 -1.67936
upperneck 21.6231 0.451861 0.116616
head 8.8361 0.087088 0.372313
rclavicle 2.78299e-015 -3.97569e-016
rhumerus -28.2943 -23.3562 -76.4227
rradius 18.7907
rwrist 44.7398
rhand -19.1511 -26.3742
rfingers 7.12502
rthumb 7.15928 -56.2331
lclavicle 2.78299e-015 -3.97569e-016
lhumerus -24.5019 4.59871 87.8722
lradius 12.9528
lwrist -0.198029
lhand -24.917 -4.19389
lfingers 7.12502
lthumb 1.59176 25.7799
rfemur -14.3128 -2.59423 19.3907
rtibia 25.19
rfoot -15.9626 -1.53521
rtoes 10.0986
lfemur -13.5832 6.5755 -17.9245
ltibia 22.3152
lfoot -12.7628 5.84378
ltoes -4.32489
534
root 0.696142 17.6155 2.71868 7.82992 -0.326551 -1.04633
lowerback -2.15422 -0.247187 -0.728396
upperback 1.19756 -0.34849 1.83059
thorax 2.45301 -0.201884 2.27462
lowerneck -12.6148 0.0922251 -1.67841
upperneck 21.4989 0.4745 0.106117
head 8.79272 0.0975305 0.370784
rclavicle 1.44119e-015 -5.1684e-015
rhumerus -28.4127 -23.4491 -76.3507
rradius 18.7574
rwrist 44.7576
rhand -19.1592 -26.3259
rfingers 7.12502
rthumb 7.15149 -56.1851
lclavicle 1.44119e-015 -5.1684e-015
lhumerus -24.5976 4.62845 87.8477
lradius 12.9459
lwrist -0.247477
lhand -24.8713 -4.14596
lfingers 7.12502
lthumb 1.63582 25.8275
rfemur -14.3146 -2.57665 19.3705
rtibia 25.1839
rfoot -15.9799 -1.55765
rtoes 10.0184
lfemur -13.5784 6.57534 -17.9478
ltibia 22.296
lfoot -12.7679 5.85922
ltoes -4.30645
535
root 0.695118 17.6153 2.72032 7.84092 -0.336816 -1.02601
lowerback -2.17497 -0.252301 -0.74881
upperback 1.19312 -0.354464 1.82251
thorax 2.46047 -0.205158 2.27747
lowerneck -12.6136 0.108725 -1.67732
upperneck 21.3759 0.498452 0.0972983
head 8.75027 0.108786 0.369947
rclavicle 5.46658e-016 -3.97569e-016
rhumerus -28.5287 -23.5413 -76.2804
rradius 18.7275
rwrist 44.7771
rhand -19.1734 -26.2901
rfingers 7.12502
rthumb 7.13778 -56.1498
lclavicle 5.46658e-016 -3.97569e-016
lhumerus -24.691 4.63914 87.834
lradius 12.9436
lwrist -0.271738
lhand -24.8266 -4.08433
lfingers 7.12502
lthumb 1.67903 25.8888
rfemur -14.3183 -2.55931 19.353
rtibia 25.1836
rfoot -15.9974 -1.57664
rtoes 9.95653
lfemur -13.5705 6.57316 -17.968
ltibia 22.2732
lfoot -12.7697 5.87706
ltoes -4.29734
536
root 0.694207 17.615 2.72198 7.84927 -0.346191 -1.00792
lowerback -2.19494 -0.257795 -0.765533
upperback 1.18995 -0.361077 1.8148
thorax 2.46881 -0.208711 2.2786
lowerneck -12.6107 0.127607 -1.67021
upperneck 21.2492 0.525101 0.084884
head 8.70626 0.12146 0.367163
rclavicle -3.37934e-015 2.78299e-015
rhumerus -28.6429 -23.6375 -76.2098
rradius 18.7018
rwrist 44.8057
rhand -19.1843 -26.2617
rfingers 7.12502
rthumb 7.12725 -56.1217
lclavicle -3.37934e-015 2.78299e-015
lhumerus -24.782 4.63573 87.8278
lradius 12.9379
lwrist -0.289694
lhand -24.7922 -4.05352
lfingers 7.12502
lthumb 1.71224 25.9194
rfemur -14.3222 -2.5472 19.337
rtibia 25.1903
rfoot -16.019 -1.58622
rtoes 9.91319
lfemur -13.5577 6.57103 -17.986
ltibia 22.2461
lfoot -12.7682 5.89507
ltoes -4.30106
537
root 0.693404 17.6147 2.72363 7.85364 -0.353628 -0.992796
lowerback -2.21099 -0.26365 -0.7771
upperback 1.18762 -0.368341 1.80736
thorax 2.4758 -0.212501 2.27709
lowerneck -12.6121 0.149124 -1.66132
upperneck 21.1269 0.555058 0.0726298
head 8.66462 0.135829 0.364515
rclavicle -4.57205e-015 0
rhumerus -28.7557 -23.722 -76.1462
rradius 18.6883
rwrist 44.8186
rhand -19.1878 -26.2506
rfingers 7.12502
rthumb 7.1239 -56.1107
lclavicle -4.57205e-015 0
lhumerus -24.8689 4.62001 87.8275
lradius 12.9239
lwrist -0.305499
lhand -24.7897 -4.07067
lfingers 7.12502
lthumb 1.71466 25.9022
rfemur -14.3218 -2.5409 19.3235
rtibia 25.1975
rfoot -16.0429 -1.58494
rtoes 9.88621
lfemur -13.5409 6.56657 -18.0006
ltibia 22.2195
lfoot -12.7661 5.91395
ltoes -4.30551
538
root 0.692719 17.6144 2.72518 7.85668 -0.360521 -0.971548
lowerback -2.22409 -0.270135 -0.792895
upperback 1.1841 -0.376226 1.79742
thorax 2.47994 -0.216618 2.27534
lowerneck -12.6129 0.171429 -1.64838
upperneck 21.0078 0.585757 0.0578107
head 8.62402 0.150594 0.360405
rclavicle -7.55382e-015 1.07344e-014
rhumerus -28.8716 -23.7617 -76.101
rradius 18.6994
rwrist 44.7824
rhand -19.1752 -26.2589
rfingers 7.12502
rthumb 7.13606 -56.1186
lclavicle -7.55382e-015 1.07344e-014
lhumerus -24.9542 4.5948 87.8314
lradius 12.9046
lwrist -0.319946
lhand -24.7948 -4.0978
lfingers 7.12502
lthumb 1.70978 25.8751
rfemur -14.3196 -2.54127 19.3022
rtibia 25.2046
rfoot -16.0683 -1.57307
rtoes 9.87141
lfemur -13.5229 6.56177 -18.0223
ltibia 22.1935
lfoot -12.7653 5.93166
ltoes -4.30811
539
root 0.692164 17.6141 2.72692 7.85455 -0.36708 -0.956105
lowerback -2.23294 -0.277472 -0.80146
upperback 1.18131 -0.385524 1.78919
thorax 2.48247 -0.221329 2.27125
lowerneck -12.6148 0.19727 -1.63403
upperneck 20.8936 0.621279 0.0420121
head 8.58533 0.167614 0.356268
rclavicle 1.04362e-015 -1.59028e-015
rhumerus -28.985 -23.7761 -76.0668
rradius 18.7236
rwrist 44.718
rhand -19.1502 -26.2786
rfingers 7.12502
rthumb 7.16017 -56.1375
lclavicle 1.04362e-015 -1.59028e-015
lhumerus -25.0353 4.58669 87.8319
lradius 12.8789
lwrist -0.354502
lhand -24.784 -4.09452
lfingers 7.12502
lthumb 1.72023 25.8783
rfemur -14.3088 -2.54521 19.2862
rtibia 25.2083
rfoot -16.0957 -1.55365
rtoes 9.86027
lfemur -13.4993 6.56012 -18.0375
ltibia 22.1698
lfoot -12.7667 5.94757
ltoes -4.31624
